<svg width="160" height="160" viewBox="0 0 160 160" fill="none" xmlns="http://www.w3.org/2000/svg">
<g filter="url(#filter0_d_22_265)">
<circle cx="80" cy="78" r="50" fill="white"/>
</g>
<path d="M95 77.1667C95.0057 79.3665 94.4917 81.5365 93.5 83.5C92.324 85.8529 90.5162 87.832 88.279 89.2155C86.0419 90.599 83.4637 91.3323 80.8333 91.3333C78.6335 91.3391 76.4635 90.8251 74.5 89.8333L65 93L68.1667 83.5C67.1749 81.5365 66.6609 79.3665 66.6667 77.1667C66.6677 74.5363 67.401 71.9581 68.7845 69.721C70.168 67.4838 72.1471 65.676 74.5 64.5C76.4635 63.5083 78.6335 62.9943 80.8333 63H81.6666C85.1405 63.1917 88.4217 64.658 90.8819 67.1181C93.342 69.5783 94.8083 72.8595 95 76.3334V77.1667Z" stroke="#27C15C" stroke-width="2" stroke-linecap="round" stroke-linejoin="round"/>
<defs>
<filter id="filter0_d_22_265" x="0" y="0" width="160" height="160" filterUnits="userSpaceOnUse" color-interpolation-filters="sRGB">
<feFlood flood-opacity="0" result="BackgroundImageFix"/>
<feColorMatrix in="SourceAlpha" type="matrix" values="0 0 0 0 0 0 0 0 0 0 0 0 0 0 0 0 0 0 127 0" result="hardAlpha"/>
<feOffset dy="2"/>
<feGaussianBlur stdDeviation="15"/>
<feColorMatrix type="matrix" values="0 0 0 0 0 0 0 0 0 0 0 0 0 0 0 0 0 0 0.02 0"/>
<feBlend mode="normal" in2="BackgroundImageFix" result="effect1_dropShadow_22_265"/>
<feBlend mode="normal" in="SourceGraphic" in2="effect1_dropShadow_22_265" result="shape"/>
</filter>
</defs>
</svg>
